<svg id="visual" viewBox="0 0 900 600" width="900" height="600" xmlns="http://www.w3.org/2000/svg" xmlns:xlink="http://www.w3.org/1999/xlink" version="1.1"><g stroke-width="1" stroke-linejoin="bevel"><path d="M411 316L329 375L464 461Z" fill="#f8f8f8" stroke="#f8f8f8"></path><path d="M464 461L556 337L411 316Z" fill="#f4f4f4" stroke="#f4f4f4"></path><path d="M278 600L440 600L464 461Z" fill="#f4f4f4" stroke="#f4f4f4"></path><path d="M464 461L640 364L556 337Z" fill="#f4f4f4" stroke="#f4f4f4"></path><path d="M817 600L640 364L464 461Z" fill="#fbfbfb" stroke="#fbfbfb"></path><path d="M329 375L278 600L464 461Z" fill="#f6f6f6" stroke="#f6f6f6"></path><path d="M411 316L165 330L329 375Z" fill="#efefef" stroke="#efefef"></path><path d="M95 502L171 600L278 600Z" fill="#ededed" stroke="#ededed"></path><path d="M556 337L525 161L411 316Z" fill="#efefef" stroke="#efefef"></path><path d="M411 316L166 58L165 330Z" fill="#efefef" stroke="#efefef"></path><path d="M699 268L525 161L556 337Z" fill="#fdfdfd" stroke="#fdfdfd"></path><path d="M95 502L278 600L329 375Z" fill="#f2f2f2" stroke="#f2f2f2"></path><path d="M640 364L699 268L556 337Z" fill="#f2f2f2" stroke="#f2f2f2"></path><path d="M165 330L95 502L329 375Z" fill="#f6f6f6" stroke="#f6f6f6"></path><path d="M615 0L396 51L525 161Z" fill="#efefef" stroke="#efefef"></path><path d="M525 161L396 51L411 316Z" fill="#fdfdfd" stroke="#fdfdfd"></path><path d="M0 167L0 378L165 330Z" fill="#f1f1f1" stroke="#f1f1f1"></path><path d="M165 330L0 378L95 502Z" fill="#ededed" stroke="#ededed"></path><path d="M699 268L700 106L525 161Z" fill="#f8f8f8" stroke="#f8f8f8"></path><path d="M396 51L166 58L411 316Z" fill="#f2f2f2" stroke="#f2f2f2"></path><path d="M615 0L267 0L396 51Z" fill="#fafafa" stroke="#fafafa"></path><path d="M396 51L267 0L166 58Z" fill="#f8f8f8" stroke="#f8f8f8"></path><path d="M0 378L0 530L95 502Z" fill="#f8f8f8" stroke="#f8f8f8"></path><path d="M95 502L0 600L171 600Z" fill="#fafafa" stroke="#fafafa"></path><path d="M267 0L250 0L166 58Z" fill="#ffffff" stroke="#ffffff"></path><path d="M700 106L615 0L525 161Z" fill="#f4f4f4" stroke="#f4f4f4"></path><path d="M440 600L817 600L464 461Z" fill="#efefef" stroke="#efefef"></path><path d="M640 364L900 383L699 268Z" fill="#f6f6f6" stroke="#f6f6f6"></path><path d="M699 268L900 152L700 106Z" fill="#fbfbfb" stroke="#fbfbfb"></path><path d="M0 530L0 600L95 502Z" fill="#ededed" stroke="#ededed"></path><path d="M166 58L0 167L165 330Z" fill="#fbfbfb" stroke="#fbfbfb"></path><path d="M0 0L0 167L166 58Z" fill="#ffffff" stroke="#ffffff"></path><path d="M900 475L900 383L640 364Z" fill="#fbfbfb" stroke="#fbfbfb"></path><path d="M817 600L900 475L640 364Z" fill="#ededed" stroke="#ededed"></path><path d="M900 0L721 0L700 106Z" fill="#f1f1f1" stroke="#f1f1f1"></path><path d="M700 106L721 0L615 0Z" fill="#f1f1f1" stroke="#f1f1f1"></path><path d="M817 600L900 600L900 475Z" fill="#f4f4f4" stroke="#f4f4f4"></path><path d="M900 383L900 152L699 268Z" fill="#f6f6f6" stroke="#f6f6f6"></path><path d="M250 0L0 0L166 58Z" fill="#f4f4f4" stroke="#f4f4f4"></path><path d="M900 152L900 0L700 106Z" fill="#f2f2f2" stroke="#f2f2f2"></path></g></svg>