<svg id="visual" viewBox="0 0 900 600" width="900" height="600" xmlns="http://www.w3.org/2000/svg" xmlns:xlink="http://www.w3.org/1999/xlink" version="1.1"><g stroke-width="1" stroke-linejoin="bevel"><path d="M518 290L528 421L561 335Z" fill="#051324" stroke="#051324"></path><path d="M528 421L583 424L561 335Z" fill="#041120" stroke="#041120"></path><path d="M518 290L375 376L528 421Z" fill="#04172c" stroke="#04172c"></path><path d="M375 376L502 483L528 421Z" fill="#051324" stroke="#051324"></path><path d="M528 421L565 486L583 424Z" fill="#000814" stroke="#000814"></path><path d="M612 175L501 218L518 290Z" fill="#030e1c" stroke="#030e1c"></path><path d="M518 290L362 263L375 376Z" fill="#031830" stroke="#031830"></path><path d="M502 483L565 486L528 421Z" fill="#020b18" stroke="#020b18"></path><path d="M393 230L362 263L518 290Z" fill="#020b18" stroke="#020b18"></path><path d="M501 218L393 230L518 290Z" fill="#031830" stroke="#031830"></path><path d="M375 376L416 511L502 483Z" fill="#031830" stroke="#031830"></path><path d="M502 483L535 600L565 486Z" fill="#031830" stroke="#031830"></path><path d="M304 226L335 281L362 263Z" fill="#021a34" stroke="#021a34"></path><path d="M362 263L335 281L375 376Z" fill="#000814" stroke="#000814"></path><path d="M375 376L337 501L416 511Z" fill="#031830" stroke="#031830"></path><path d="M663 523L670 382L583 424Z" fill="#04172c" stroke="#04172c"></path><path d="M583 424L670 382L561 335Z" fill="#041120" stroke="#041120"></path><path d="M561 335L612 175L518 290Z" fill="#031830" stroke="#031830"></path><path d="M335 281L283 379L375 376Z" fill="#001d3d" stroke="#001d3d"></path><path d="M283 379L337 501L375 376Z" fill="#051528" stroke="#051528"></path><path d="M714 314L612 175L561 335Z" fill="#051324" stroke="#051324"></path><path d="M501 218L461 68L393 230Z" fill="#011b39" stroke="#011b39"></path><path d="M670 382L714 314L561 335Z" fill="#021a34" stroke="#021a34"></path><path d="M393 230L304 226L362 263Z" fill="#041120" stroke="#041120"></path><path d="M335 281L179 316L283 379Z" fill="#031830" stroke="#031830"></path><path d="M338 78L304 226L393 230Z" fill="#030e1c" stroke="#030e1c"></path><path d="M593 600L663 523L565 486Z" fill="#030e1c" stroke="#030e1c"></path><path d="M565 486L663 523L583 424Z" fill="#051324" stroke="#051324"></path><path d="M670 382L783 390L714 314Z" fill="#011b39" stroke="#011b39"></path><path d="M369 600L535 600L416 511Z" fill="#04172c" stroke="#04172c"></path><path d="M416 511L535 600L502 483Z" fill="#000814" stroke="#000814"></path><path d="M535 600L593 600L565 486Z" fill="#051324" stroke="#051324"></path><path d="M674 87L607 113L612 175Z" fill="#030e1c" stroke="#030e1c"></path><path d="M612 175L607 113L501 218Z" fill="#020b18" stroke="#020b18"></path><path d="M317 600L369 600L337 501Z" fill="#021a34" stroke="#021a34"></path><path d="M337 501L369 600L416 511Z" fill="#041120" stroke="#041120"></path><path d="M714 314L702 173L612 175Z" fill="#000814" stroke="#000814"></path><path d="M714 314L765 260L702 173Z" fill="#030e1c" stroke="#030e1c"></path><path d="M783 390L765 260L714 314Z" fill="#011b39" stroke="#011b39"></path><path d="M607 113L461 68L501 218Z" fill="#000814" stroke="#000814"></path><path d="M763 534L783 390L670 382Z" fill="#030e1c" stroke="#030e1c"></path><path d="M216 600L317 600L337 501Z" fill="#000814" stroke="#000814"></path><path d="M900 265L769 235L765 260Z" fill="#021a34" stroke="#021a34"></path><path d="M765 260L769 235L702 173Z" fill="#000814" stroke="#000814"></path><path d="M461 68L397 66L393 230Z" fill="#031830" stroke="#031830"></path><path d="M221 163L179 316L304 226Z" fill="#020b18" stroke="#020b18"></path><path d="M304 226L179 316L335 281Z" fill="#051324" stroke="#051324"></path><path d="M283 379L160 488L337 501Z" fill="#000814" stroke="#000814"></path><path d="M397 66L338 78L393 230Z" fill="#04172c" stroke="#04172c"></path><path d="M726 600L763 534L663 523Z" fill="#030e1c" stroke="#030e1c"></path><path d="M663 523L763 534L670 382Z" fill="#051324" stroke="#051324"></path><path d="M765 119L674 87L702 173Z" fill="#04172c" stroke="#04172c"></path><path d="M702 173L674 87L612 175Z" fill="#020b18" stroke="#020b18"></path><path d="M607 113L477 0L461 68Z" fill="#000814" stroke="#000814"></path><path d="M179 316L167 397L283 379Z" fill="#020b18" stroke="#020b18"></path><path d="M338 78L221 163L304 226Z" fill="#051528" stroke="#051528"></path><path d="M593 600L726 600L663 523Z" fill="#011b39" stroke="#011b39"></path><path d="M167 397L160 488L283 379Z" fill="#020b18" stroke="#020b18"></path><path d="M638 0L477 0L607 113Z" fill="#000814" stroke="#000814"></path><path d="M461 68L400 0L397 66Z" fill="#001d3d" stroke="#001d3d"></path><path d="M397 66L400 0L338 78Z" fill="#001d3d" stroke="#001d3d"></path><path d="M769 235L765 119L702 173Z" fill="#000814" stroke="#000814"></path><path d="M674 87L638 0L607 113Z" fill="#04172c" stroke="#04172c"></path><path d="M900 176L765 119L769 235Z" fill="#020b18" stroke="#020b18"></path><path d="M160 488L216 600L337 501Z" fill="#000814" stroke="#000814"></path><path d="M477 0L400 0L461 68Z" fill="#020b18" stroke="#020b18"></path><path d="M338 78L181 106L221 163Z" fill="#051528" stroke="#051528"></path><path d="M726 600L774 600L763 534Z" fill="#031830" stroke="#031830"></path><path d="M900 521L900 379L783 390Z" fill="#031830" stroke="#031830"></path><path d="M101 400L139 505L160 488Z" fill="#041120" stroke="#041120"></path><path d="M160 488L139 505L216 600Z" fill="#011b39" stroke="#011b39"></path><path d="M101 400L160 488L167 397Z" fill="#04172c" stroke="#04172c"></path><path d="M735 0L638 0L674 87Z" fill="#041120" stroke="#041120"></path><path d="M179 316L101 400L167 397Z" fill="#011b39" stroke="#011b39"></path><path d="M74 335L101 400L179 316Z" fill="#020b18" stroke="#020b18"></path><path d="M285 0L181 106L338 78Z" fill="#021a34" stroke="#021a34"></path><path d="M70 206L74 335L179 316Z" fill="#001d3d" stroke="#001d3d"></path><path d="M900 521L783 390L763 534Z" fill="#021a34" stroke="#021a34"></path><path d="M783 390L900 265L765 260Z" fill="#051528" stroke="#051528"></path><path d="M400 0L285 0L338 78Z" fill="#001d3d" stroke="#001d3d"></path><path d="M900 379L900 265L783 390Z" fill="#021a34" stroke="#021a34"></path><path d="M70 206L179 316L221 163Z" fill="#000814" stroke="#000814"></path><path d="M0 539L67 600L139 505Z" fill="#021a34" stroke="#021a34"></path><path d="M824 0L735 0L765 119Z" fill="#051528" stroke="#051528"></path><path d="M765 119L735 0L674 87Z" fill="#041120" stroke="#041120"></path><path d="M774 600L900 521L763 534Z" fill="#041120" stroke="#041120"></path><path d="M900 265L900 176L769 235Z" fill="#051324" stroke="#051324"></path><path d="M181 106L70 206L221 163Z" fill="#051324" stroke="#051324"></path><path d="M122 77L70 206L181 106Z" fill="#020b18" stroke="#020b18"></path><path d="M177 0L122 77L181 106Z" fill="#051324" stroke="#051324"></path><path d="M900 176L900 120L765 119Z" fill="#051528" stroke="#051528"></path><path d="M774 600L900 600L900 521Z" fill="#031830" stroke="#031830"></path><path d="M285 0L177 0L181 106Z" fill="#001d3d" stroke="#001d3d"></path><path d="M900 120L824 0L765 119Z" fill="#041120" stroke="#041120"></path><path d="M0 360L101 400L74 335Z" fill="#051324" stroke="#051324"></path><path d="M0 539L139 505L101 400Z" fill="#04172c" stroke="#04172c"></path><path d="M139 505L67 600L216 600Z" fill="#031830" stroke="#031830"></path><path d="M0 284L0 360L74 335Z" fill="#041120" stroke="#041120"></path><path d="M0 284L74 335L70 206Z" fill="#020b18" stroke="#020b18"></path><path d="M0 191L0 284L70 206Z" fill="#051528" stroke="#051528"></path><path d="M177 0L130 0L122 77Z" fill="#051324" stroke="#051324"></path><path d="M0 76L0 191L70 206Z" fill="#020b18" stroke="#020b18"></path><path d="M0 76L70 206L122 77Z" fill="#04172c" stroke="#04172c"></path><path d="M0 360L0 539L101 400Z" fill="#000814" stroke="#000814"></path><path d="M900 120L900 0L824 0Z" fill="#001d3d" stroke="#001d3d"></path><path d="M0 539L0 600L67 600Z" fill="#001d3d" stroke="#001d3d"></path><path d="M0 0L0 76L122 77Z" fill="#051324" stroke="#051324"></path><path d="M130 0L0 0L122 77Z" fill="#041120" stroke="#041120"></path></g></svg>